<?xml version="1.0" encoding="UTF-8"?>
<svg id="Layer_2" data-name="Layer 2" xmlns="http://www.w3.org/2000/svg" xmlns:xlink="http://www.w3.org/1999/xlink" viewBox="0 0 4428.61 1204.03">
  <defs>
    <style>
      .cls-1 {
        fill: url(#linear-gradient-2);
      }

      .cls-2 {
        fill: url(#linear-gradient);
      }

      .cls-3 {
        fill: #8e85a4;
      }

      .cls-4 {
        fill: #e3dfeb;
      }

      .cls-5 {
        fill: #20212b;
      }
    </style>
    <linearGradient id="linear-gradient" x1="2054.84" y1="247.7" x2="2694.63" y2="247.7" gradientUnits="userSpaceOnUse">
      <stop offset="0" stop-color="#a99dc5"/>
      <stop offset="1" stop-color="#c1b8d4"/>
    </linearGradient>
    <linearGradient id="linear-gradient-2" x1="2258.57" y1="869.85" x2="2902.48" y2="869.85" xlink:href="#linear-gradient"/>
  </defs>
  <g id="Layer_1-2" data-name="Layer 1">
    <g>
      <g>
        <g>
          <rect class="cls-5" x="8.43" y="539.94" width="266.56" height="661.81" rx="30.64" ry="30.64"/>
          <circle class="cls-5" cx="137.49" cy="361.08" r="137.49"/>
          <path class="cls-5" d="M1038.03,541.07h-177.71c-16.92,0-30.64,13.62-30.64,30.41v26.92c-47.06-29.62-102.23-46.69-161.24-46.69-172.39,0-312.14,145.52-312.14,325.02s139.75,325.02,312.14,325.02c59.01,0,114.18-17.06,161.24-46.69v16.27c0,16.8,13.72,30.41,30.64,30.41h177.71c16.92,0,30.64-13.62,30.64-30.41v-599.86c0-16.8-13.72-30.41-30.64-30.41ZM717.4,971.96c-55.95,0-101.3-45.02-101.3-100.55s45.35-100.55,101.3-100.55,101.3,45.02,101.3,100.55-45.35,100.55-101.3,100.55Z"/>
          <path class="cls-5" d="M1609.86,540.68h-98.05c-6.77,0-12.26-5.72-12.26-12.78v-113.45c0-7.06-5.49-12.78-12.26-12.78h-231.33c-6.77,0-12.26,5.72-12.26,12.78v113.45c0,7.06-5.49,12.78-12.26,12.78h-68.94c-6.77,0-12.26,5.72-12.26,12.78v188.29c0,7.06,5.49,12.78,12.26,12.78h68.94c6.77,0,12.26,5.72,12.26,12.78v156.86c0,2.2.58,4.24,1.52,6.05-1.06,36.92,3.86,90.78,34.86,142.2,58.36,96.79,185.77,146.14,324.19,126.78,6.5-.91,11.29-6.6,11.26-13.17-.34-67.13-.67-134.27-1.01-201.4-.04-8.15-7.34-14.28-15.38-12.97-17.48,2.86-44.54,3.63-65.89-12.7-10.04-7.68-14.75-16.04-21.64-28.58,0,0-22.54-41.03-12.06-163.06.16-1.83.57-5.95,3.59-9.04,2.77-2.82,6.5-3.53,8.67-3.74h98.05c6.77,0,12.26-5.72,12.26-12.78v-188.29c0-7.06-5.49-12.78-12.26-12.78Z"/>
          <path class="cls-5" d="M2163.02,540.68h-98.05c-6.77,0-12.26-5.72-12.26-12.78v-113.45c0-7.06-5.49-12.78-12.26-12.78h-231.33c-6.77,0-12.26,5.72-12.26,12.78v113.45c0,7.06-5.49,12.78-12.26,12.78h-68.94c-6.77,0-12.26,5.72-12.26,12.78v188.29c0,7.06,5.49,12.78,12.26,12.78h68.94c6.77,0,12.26,5.72,12.26,12.78v156.86c0,2.2.58,4.24,1.52,6.05-1.06,36.92,3.86,90.78,34.86,142.2,58.36,96.79,185.77,146.14,324.19,126.78,6.5-.91,11.29-6.6,11.26-13.17-.34-67.13-.67-134.27-1.01-201.4-.04-8.15-7.34-14.28-15.38-12.97-17.48,2.86-44.54,3.63-65.89-12.7-10.04-7.68-14.75-16.04-21.64-28.58,0,0-22.54-41.03-12.06-163.06.16-1.83.57-5.95,3.59-9.04,2.77-2.82,6.5-3.53,8.67-3.74h98.05c6.77,0,12.26-5.72,12.26-12.78v-188.29c0-7.06-5.49-12.78-12.26-12.78Z"/>
          <path class="cls-5" d="M3208.26,595.23v-45.6c0-4.73-3.86-8.56-8.62-8.56h-224.05c-4.76,0-8.62,3.83-8.62,8.56v644.26c0,4.73,3.86,8.56,8.62,8.56h224.05c4.76,0,8.62-3.83,8.62-8.56v-338.28c0-1.19.23-2.39.7-3.48,14.18-32.79,46.9-54.12,82.79-53.82,35.33.3,67.29,21.52,81.25,53.81.48,1.1.71,2.3.71,3.5v339.08c0,4.73,3.86,8.56,8.62,8.56h224.05c4.76,0,8.62-3.83,8.62-8.56v-412.07c0-83.6-42.67-162.68-115.09-205.23-19.31-11.35-40.34-20.07-62.62-25.68-102.07-25.69-183.61,25.78-215.16,50.29-5.64,4.38-13.87.33-13.87-6.78Z"/>
          <path class="cls-5" d="M4427.46,582v-325.12c0-17.34-14.15-31.4-31.6-31.4h-186.13c-17.45,0-31.6,14.06-31.6,31.4v319.78c-33.65-17.8-90.27-41.09-159.71-37.51-148.06,7.64-319.89,135.7-322.1,327.08-2.23,192.88,169.21,330.32,320.87,334.73,72.94,2.12,131.64-26.81,165.75-48.08v16.76c0,17.3,14.11,31.32,31.52,31.32h182.66c17.39,0,31.5-14.01,31.5-31.3-.38-195.89-.77-391.78-1.15-587.67ZM4067.52,966.52c-57.51,0-104.13-45.93-104.13-102.58s46.62-102.58,104.13-102.58,104.13,45.93,104.13,102.58-46.62,102.58-104.13,102.58Z"/>
        </g>
        <path class="cls-3" d="M2254.45,494.65c40.86-34.01,81.72-68.01,122.58-102.02-29.91-26.38-59.81-52.76-89.72-79.14-5.33,24.67-10.44,49.99-15.29,75.93-6.73,36.02-12.55,71.13-17.57,105.24Z"/>
        <path class="cls-2" d="M2252.98,495.39c-1.62-.08-3.2-4.09-3.78-9.44-5.71-66-11.42-132-17.13-197.99-57.29-25.26-114.59-50.52-171.89-75.78-4.19-2.62-6.18-7.46-5.01-11.75,1.32-4.82,6.01-6.66,6.52-6.85,59.58-18.86,576.8-182.58,610.01-191.53,4.77-1.29,16.66-4.36,21.14,1.01,3.16,3.79,1.57,10.47-.57,15.96-31.77,65.6-63.44,132.56-94.92,200.87-37.99,82.42-74.32,163.78-109.07,243.95-1.47,2.29-4.41,6.07-9.18,7.48-5.63,1.66-11.63-.1-15.36-3.27-17.41-14.81-34.84-29.77-52.32-44.9-42.3-36.62-83.67-73.19-124.11-109.66-9.84,57.19-19.69,114.37-29.53,171.56-.97,6.24-3.11,10.43-4.81,10.35Z"/>
        <path class="cls-4" d="M2256.01,444.47c-4.95-82.76-8.34-143.38-8.32-148.9,0-3.18,1.1-5.87,1.1-5.87,1.25-3.09,3.35-5.19,4.93-6.47,111.8-70.56,223.6-141.13,335.4-211.69,16.54-10.31,25.01-15.17,25.41-14.57.4.59-6.99,6.44-22.18,17.55-104.21,78.18-208.42,156.35-312.62,234.53-2.61,15-5.9,33.92-8.53,48.92-5.04,28.85-10.1,57.69-15.18,86.51Z"/>
      </g>
      <path class="cls-1" d="M2901.09,904.64c-6.48-28.21-37.91-54.7-66.56-55.65-38.06-1.27-50.91,43.35-107.84,95.64-8.88,8.15-115.77,103.81-234.02,88.97-21.07-2.64-60.43-8.17-80.64-39.18-17.2-26.4-11.81-57.9-9.3-72.53,7.91-46.2,37.99-74.96,50.07-85.31l-.11-.06c43.34,14.45,89.67,20.91,133.72,17.93,16.77-1.13,173.67-13.62,227.08-119.98,5.93-11.8,19.43-39.58,15.89-75.67-4.71-47.98-36.4-78.52-47.66-88.22-40.16-34.58-88.39-34.78-115.48-34.88-128.92-.51-226.23,102.73-250.91,130.42-3.58-5.86-8.74-14.7-14.26-25.78-27.75-55.71-21.61-81.73-41.25-96.17-19.79-14.56-54.72-9.21-75.08,6.81-40.75,32.08-27.22,110.17-4.46,155.26,17.51,34.69,43.21,55.26,57.85,65.32l-.1-.05c-6.8,7.99-110.98,134.47-63.18,273.5,2.04,5.93,36.05,100.32,126.33,140.36,203.81,90.41,525.04-171.28,499.91-280.73ZM2691.03,647.23c14.58,9.48,21.56,32.15,16.13,48.82-11.45,35.13-80.74,51.89-178.87,38.32,70.7-73.07,133.31-106.27,162.74-87.14Z"/>
    </g>
  </g>
</svg>