<?xml version="1.0" encoding="UTF-8"?>
<svg id="Layer_2" data-name="Layer 2" xmlns="http://www.w3.org/2000/svg" xmlns:xlink="http://www.w3.org/1999/xlink" viewBox="0 0 519.81 264.7">
  <defs>
    <style>
      .cls-1 {
        fill: url(#linear-gradient-5);
      }

      .cls-2 {
        fill: url(#linear-gradient-4);
      }

      .cls-3 {
        fill: url(#linear-gradient-3);
      }

      .cls-4 {
        fill: url(#linear-gradient-2);
      }

      .cls-5 {
        fill: url(#linear-gradient);
      }
    </style>
    <linearGradient id="linear-gradient" x1="0" y1="132.35" x2="519.81" y2="132.35" gradientUnits="userSpaceOnUse">
      <stop offset="0" stop-color="#a99dc5"/>
      <stop offset="1" stop-color="#c1b9d4"/>
    </linearGradient>
    <linearGradient id="linear-gradient-2" x1="196.1" y1="175.24" x2="196.1" y2="94.65" gradientUnits="userSpaceOnUse">
      <stop offset="0" stop-color="#ebe6f1"/>
      <stop offset="1" stop-color="#fdfdfc"/>
    </linearGradient>
    <linearGradient id="linear-gradient-3" x1="233.05" x2="233.05" y2="88.54" xlink:href="#linear-gradient-2"/>
    <linearGradient id="linear-gradient-4" x1="263.94" x2="263.94" y2="96.49" xlink:href="#linear-gradient-2"/>
    <linearGradient id="linear-gradient-5" x1="311.56" y1="176.16" x2="311.56" y2="111.37" xlink:href="#linear-gradient-2"/>
  </defs>
  <g id="Layer_1-2" data-name="Layer 1">
    <rect class="cls-5" x="0" width="519.81" height="264.7" rx="10.48" ry="10.48"/>
    <g>
      <path class="cls-4" d="M186.24,168.9h28.94l-1.15,6.34h-37.01l14.18-80.59h8.07l-13.03,74.25Z"/>
      <path class="cls-3" d="M240.08,112.29l-11.07,62.95h-8.07l11.07-62.95h8.07ZM234.66,99.09c-.92-.88-1.38-2.06-1.38-3.52,0-2,.69-3.67,2.08-5.02,1.38-1.34,3.04-2.02,4.96-2.02,1.46,0,2.63.42,3.52,1.27.88.85,1.33,1.96,1.33,3.34,0,2-.69,3.71-2.08,5.13-1.38,1.42-3,2.13-4.84,2.13-1.46,0-2.65-.44-3.57-1.33Z"/>
      <path class="cls-2" d="M256.1,158.17c-.23,1.38-.35,2.58-.35,3.57,0,2.46.67,4.17,2.02,5.13,1.34.96,3.55,1.44,6.63,1.44h7.38l-1.27,6.92h-8.65c-4.77,0-8.34-.92-10.72-2.77-2.38-1.84-3.57-4.88-3.57-9.11,0-1.69.15-3.42.46-5.19l6.92-39.08h-8.76l1.27-6.8h8.76l2.77-15.79h8.07l-2.77,15.79h17.41l-1.27,6.8h-17.41l-6.92,39.08Z"/>
      <path class="cls-1" d="M331.27,114.42c3.76,2.04,6.63,4.82,8.59,8.36,1.96,3.54,2.94,7.57,2.94,12.11,0,2.08-.16,3.92-.46,5.53-.46,2.31-.92,4.38-1.38,6.22h-52.23c-.23,1.46-.35,2.84-.35,4.15,0,5.92,1.79,10.49,5.36,13.72,3.57,3.23,8.13,4.84,13.66,4.84s9.95-1.27,13.95-3.81c4-2.54,6.92-5.95,8.76-10.26h8.65c-2.61,6.15-6.78,11.16-12.51,15.05-5.73,3.88-12.39,5.82-20,5.82s-14.12-2.25-18.85-6.74c-4.73-4.5-7.09-10.62-7.09-18.39,0-2.31.23-4.73.69-7.26,1.15-6.53,3.48-12.26,6.98-17.18,3.5-4.92,7.82-8.68,12.97-11.3,5.15-2.61,10.72-3.92,16.72-3.92,5.3,0,9.84,1.02,13.6,3.05ZM334.61,135.23c0-5.46-1.73-9.64-5.19-12.57-3.46-2.92-7.88-4.38-13.26-4.38-3.92,0-7.69.85-11.3,2.54-3.61,1.69-6.76,4.23-9.45,7.61-2.69,3.38-4.54,7.46-5.53,12.22h44.16c.38-2.15.58-3.96.58-5.42Z"/>
    </g>
  </g>
</svg>