<?xml version="1.0" encoding="UTF-8"?>
<svg id="Layer_2" data-name="Layer 2" xmlns="http://www.w3.org/2000/svg" xmlns:xlink="http://www.w3.org/1999/xlink" viewBox="0 0 519.81 264.7">
  <defs>
    <style>
      .cls-1 {
        fill: #ccc1db;
      }

      .cls-2 {
        fill: #baadd0;
      }

      .cls-3 {
        fill: #c6bbd8;
      }

      .cls-4 {
        fill: #b8aace;
      }

      .cls-5 {
        fill: #bdb1d2;
      }

      .cls-6 {
        fill: #c2b5d4;
      }

      .cls-7 {
        fill: #cbc1da;
      }

      .cls-8 {
        fill: #c7bdd8;
      }

      .cls-9 {
        fill: #c0b4d3;
      }

      .cls-10 {
        fill: #bdb0d1;
      }

      .cls-11 {
        fill: #c1b4d4;
      }

      .cls-12 {
        fill: #bfb2d3;
      }

      .cls-13 {
        fill: #c6bad7;
      }

      .cls-14 {
        fill: #c9bfd9;
      }

      .cls-15 {
        fill: url(#linear-gradient-3);
      }

      .cls-16 {
        fill: url(#linear-gradient-2);
      }

      .cls-17 {
        fill: #beb2d2;
      }

      .cls-18 {
        fill: #beb1d2;
      }

      .cls-19 {
        fill: #c7bcd8;
      }

      .cls-20 {
        fill: #bcafd1;
      }

      .cls-21 {
        fill: #bbadd0;
      }

      .cls-22 {
        fill: #b8a9ce;
      }

      .cls-23 {
        fill: url(#linear-gradient);
      }

      .cls-24 {
        fill: #c8bdd9;
      }

      .cls-25 {
        fill: #b9abcf;
      }

      .cls-26 {
        fill: #b6a8cd;
      }

      .cls-27 {
        fill: #c2b6d4;
      }

      .cls-28 {
        fill: #b7a9cd;
      }

      .cls-29 {
        fill: #c8bed9;
      }

      .cls-30 {
        fill: #cbc0da;
      }

      .cls-31 {
        fill: #b7a8cd;
      }

      .cls-32 {
        fill: #c2b6d5;
      }

      .cls-33 {
        fill: #c5b9d7;
      }

      .cls-34 {
        fill: #cabfda;
      }

      .cls-35 {
        fill: #c0b4d4;
      }

      .cls-36 {
        fill: #baadcf;
      }

      .cls-37 {
        fill: #bdb0d2;
      }

      .cls-38 {
        fill: #c1b5d4;
      }

      .cls-39 {
        fill: #c7bbd8;
      }

      .cls-40 {
        fill: #cac0da;
      }

      .cls-41 {
        fill: #cbc1db;
      }

      .cls-42 {
        fill: #bbaed0;
      }

      .cls-43 {
        fill: #c9bed9;
      }

      .cls-44 {
        fill: #b7a9ce;
      }

      .cls-45 {
        fill: #b9accf;
      }

      .cls-46 {
        fill: #b5a6cc;
      }

      .cls-47 {
        fill: #bdafd1;
      }

      .cls-48 {
        fill: #bfb2d2;
      }

      .cls-49 {
        fill: #c9bfda;
      }

      .cls-50 {
        fill: #c2b7d5;
      }

      .cls-51 {
        fill: #bcaed0;
      }

      .cls-52 {
        fill: #bcafd0;
      }

      .cls-53 {
        fill: #b8abce;
      }

      .cls-54 {
        fill: #c5b9d6;
      }

      .cls-55 {
        fill: #b6a7cc;
      }

      .cls-56 {
        fill: #c6bbd7;
      }

      .cls-57 {
        fill: #c8bdd8;
      }

      .cls-58 {
        fill: #c4b8d6;
      }

      .cls-59 {
        fill: #b9abce;
      }

      .cls-60 {
        fill: #c3b8d6;
      }

      .cls-61 {
        fill: #c3b7d5;
      }

      .cls-62 {
        fill: #ccc2db;
      }

      .cls-63 {
        fill: #b5a7cc;
      }

      .cls-64 {
        fill: #c4b9d6;
      }

      .cls-65 {
        fill: #baaccf;
      }

      .cls-66 {
        fill: #c0b3d3;
      }

      .cls-67 {
        fill: #bfb3d3;
      }

      .cls-68 {
        fill: #20212b;
      }

      .cls-69 {
        fill: #c5bad7;
      }
    </style>
    <linearGradient id="linear-gradient" x1="259.91" y1="264.7" x2="259.91" y2="0" gradientUnits="userSpaceOnUse">
      <stop offset="0" stop-color="#f5f5f5"/>
      <stop offset="1" stop-color="#fff"/>
    </linearGradient>
    <linearGradient id="linear-gradient-2" x1="-153.46" y1="5.38" x2="-153.46" y2="-24.35" gradientTransform="translate(250.52 83.76) rotate(-4.74)" gradientUnits="userSpaceOnUse">
      <stop offset="0" stop-color="#a99dc5"/>
      <stop offset="1" stop-color="#c1b9d4"/>
    </linearGradient>
    <linearGradient id="linear-gradient-3" x1="-179.75" y1="9.58" x2="-179.75" y2="-7.85" xlink:href="#linear-gradient-2"/>
  </defs>
  <g id="Layer_1-2" data-name="Layer 1">
    <rect class="cls-23" x="0" width="519.81" height="264.7" rx="10.48" ry="10.48"/>
    <g>
      <g>
        <circle class="cls-46" cx="108.11" cy="174.44" r="7.51"/>
        <circle class="cls-46" cx="108.75" cy="174.83" r="7.51"/>
        <circle class="cls-46" cx="109.41" cy="175.23" r="7.51"/>
        <circle class="cls-46" cx="110.09" cy="175.64" r="7.51"/>
        <circle class="cls-46" cx="110.78" cy="176.06" r="7.51"/>
        <circle class="cls-46" cx="111.5" cy="176.47" r="7.51"/>
        <circle class="cls-46" cx="112.23" cy="176.9" r="7.51"/>
        <circle class="cls-63" cx="112.98" cy="177.32" r="7.51"/>
        <circle class="cls-63" cx="113.75" cy="177.75" r="7.51"/>
        <circle class="cls-63" cx="114.54" cy="178.19" r="7.51"/>
        <circle class="cls-63" cx="115.35" cy="178.62" r="7.51"/>
        <circle class="cls-63" cx="116.17" cy="179.06" r="7.51"/>
        <circle class="cls-63" cx="117.01" cy="179.5" r="7.51"/>
        <circle class="cls-63" cx="117.88" cy="179.94" r="7.51"/>
        <circle class="cls-55" cx="118.75" cy="180.38" r="7.51"/>
        <circle class="cls-55" cx="119.65" cy="180.82" r="7.51"/>
        <circle class="cls-55" cx="120.57" cy="181.26" r="7.51"/>
        <circle class="cls-55" cx="121.5" cy="181.7" r="7.51"/>
        <circle class="cls-55" cx="122.45" cy="182.14" r="7.51"/>
        <circle class="cls-55" cx="123.42" cy="182.57" r="7.51"/>
        <circle class="cls-55" cx="124.41" cy="183.01" r="7.51"/>
        <circle class="cls-55" cx="125.41" cy="183.44" r="7.51"/>
        <circle class="cls-55" cx="126.43" cy="183.87" r="7.51"/>
        <circle class="cls-26" cx="127.47" cy="184.29" r="7.51"/>
        <circle class="cls-26" cx="128.53" cy="184.72" r="7.51"/>
        <circle class="cls-26" cx="129.6" cy="185.13" r="7.51"/>
        <circle class="cls-26" cx="130.7" cy="185.55" r="7.51"/>
        <circle class="cls-26" cx="131.8" cy="185.95" r="7.51"/>
        <circle class="cls-26" cx="132.93" cy="186.35" r="7.51"/>
        <circle class="cls-26" cx="134.07" cy="186.75" r="7.51"/>
        <circle class="cls-26" cx="135.09" cy="187.09" r="7.51"/>
        <circle class="cls-26" cx="135.27" cy="187.15" r="7.51"/>
        <circle class="cls-26" cx="135.5" cy="187.22" r="7.51"/>
        <circle class="cls-26" cx="135.78" cy="187.31" r="7.51"/>
        <circle class="cls-31" cx="136.1" cy="187.41" r="7.51"/>
        <circle class="cls-31" cx="136.47" cy="187.52" r="7.51"/>
        <circle class="cls-31" cx="136.89" cy="187.65" r="7.51"/>
        <circle class="cls-31" cx="137.34" cy="187.79" r="7.51"/>
        <circle class="cls-31" cx="137.85" cy="187.94" r="7.51"/>
        <circle class="cls-31" cx="138.39" cy="188.09" r="7.51"/>
        <circle class="cls-28" cx="138.97" cy="188.26" r="7.51"/>
        <circle class="cls-28" cx="139.6" cy="188.44" r="7.51"/>
        <circle class="cls-28" cx="140.26" cy="188.62" r="7.51"/>
        <circle class="cls-28" cx="140.96" cy="188.8" r="7.51"/>
        <circle class="cls-28" cx="141.7" cy="189" r="7.51"/>
        <circle class="cls-28" cx="142.48" cy="189.19" r="7.51"/>
        <circle class="cls-28" cx="143.29" cy="189.4" r="7.51"/>
        <circle class="cls-28" cx="144.13" cy="189.6" r="7.51"/>
        <circle class="cls-28" cx="145.01" cy="189.81" r="7.51"/>
        <circle class="cls-28" cx="145.92" cy="190.02" r="7.51"/>
        <circle class="cls-28" cx="146.86" cy="190.23" r="7.51"/>
        <circle class="cls-28" cx="147.83" cy="190.44" r="7.51"/>
        <circle class="cls-44" cx="148.83" cy="190.65" r="7.51"/>
        <circle class="cls-44" cx="149.86" cy="190.85" r="7.51"/>
        <circle class="cls-22" cx="150.92" cy="191.06" r="7.51"/>
        <circle class="cls-22" cx="152" cy="191.26" r="7.51"/>
        <circle class="cls-4" cx="153.11" cy="191.46" r="7.51"/>
        <circle class="cls-4" cx="154.24" cy="191.65" r="7.51"/>
        <circle class="cls-4" cx="155.4" cy="191.84" r="7.51"/>
        <circle class="cls-4" cx="156.58" cy="192.02" r="7.51"/>
        <circle class="cls-4" cx="157.78" cy="192.19" r="7.51"/>
        <circle class="cls-4" cx="159" cy="192.36" r="7.51"/>
        <circle class="cls-4" cx="160.24" cy="192.52" r="7.51"/>
        <circle class="cls-4" cx="161.5" cy="192.66" r="7.51"/>
        <circle class="cls-4" cx="162.78" cy="192.8" r="7.51"/>
        <circle class="cls-4" cx="164.07" cy="192.93" r="7.51"/>
        <circle class="cls-4" cx="165.38" cy="193.04" r="7.51"/>
        <circle class="cls-4" cx="166.7" cy="193.14" r="7.51"/>
        <circle class="cls-4" cx="168.04" cy="193.23" r="7.51"/>
        <circle class="cls-4" cx="169.39" cy="193.31" r="7.51"/>
        <circle class="cls-4" cx="170.76" cy="193.37" r="7.51"/>
        <circle class="cls-4" cx="172.13" cy="193.41" r="7.51"/>
        <circle class="cls-4" cx="173.51" cy="193.44" r="7.51"/>
        <circle class="cls-53" cx="174.91" cy="193.44" r="7.51"/>
        <circle class="cls-59" cx="176.31" cy="193.44" r="7.51"/>
        <circle class="cls-59" cx="177.71" cy="193.41" r="7.51"/>
        <circle class="cls-59" cx="179.13" cy="193.36" r="7.51"/>
        <circle class="cls-59" cx="180.55" cy="193.29" r="7.51"/>
        <circle class="cls-59" cx="181.97" cy="193.2" r="7.51"/>
        <circle class="cls-59" cx="183.4" cy="193.09" r="7.51"/>
        <circle class="cls-59" cx="184.61" cy="192.98" r="7.51"/>
        <circle class="cls-25" cx="185.75" cy="192.85" r="7.51"/>
        <circle class="cls-25" cx="186.89" cy="192.72" r="7.51"/>
        <circle class="cls-25" cx="188.03" cy="192.57" r="7.51"/>
        <circle class="cls-25" cx="189.17" cy="192.4" r="7.51"/>
        <circle class="cls-25" cx="190.31" cy="192.23" r="7.51"/>
        <circle class="cls-25" cx="191.45" cy="192.03" r="7.51"/>
        <circle class="cls-25" cx="192.58" cy="191.83" r="7.51"/>
        <circle class="cls-25" cx="193.72" cy="191.61" r="7.51"/>
        <circle class="cls-45" cx="194.86" cy="191.38" r="7.51"/>
        <circle class="cls-45" cx="195.99" cy="191.13" r="7.51"/>
        <circle class="cls-45" cx="197.12" cy="190.88" r="7.51"/>
        <circle class="cls-45" cx="198.25" cy="190.61" r="7.51"/>
        <circle class="cls-45" cx="199.38" cy="190.32" r="7.51"/>
        <circle class="cls-65" cx="200.51" cy="190.03" r="7.51"/>
        <circle class="cls-65" cx="201.63" cy="189.72" r="7.51"/>
        <circle class="cls-65" cx="202.75" cy="189.4" r="7.51"/>
        <circle class="cls-65" cx="203.87" cy="189.07" r="7.51"/>
        <circle class="cls-65" cx="204.99" cy="188.73" r="7.51"/>
        <circle class="cls-65" cx="206.1" cy="188.37" r="7.51"/>
        <circle class="cls-65" cx="207.21" cy="188.01" r="7.51"/>
        <circle class="cls-65" cx="208.32" cy="187.63" r="7.51"/>
        <circle class="cls-65" cx="209.43" cy="187.24" r="7.51"/>
        <circle class="cls-65" cx="210.53" cy="186.85" r="7.51"/>
        <circle class="cls-65" cx="211.62" cy="186.44" r="7.51"/>
        <circle class="cls-36" cx="212.72" cy="186.02" r="7.51"/>
        <circle class="cls-36" cx="213.8" cy="185.59" r="7.51"/>
        <circle class="cls-36" cx="214.89" cy="185.15" r="7.51"/>
        <circle class="cls-36" cx="215.97" cy="184.7" r="7.51"/>
        <circle class="cls-36" cx="217.05" cy="184.24" r="7.51"/>
        <circle class="cls-2" cx="218.12" cy="183.77" r="7.51"/>
        <circle class="cls-2" cx="219.18" cy="183.29" r="7.51"/>
        <circle class="cls-2" cx="220.24" cy="182.8" r="7.51"/>
        <circle class="cls-21" cx="221.3" cy="182.3" r="7.51"/>
        <circle class="cls-21" cx="222.35" cy="181.8" r="7.51"/>
        <circle class="cls-21" cx="223.4" cy="181.28" r="7.51"/>
        <circle class="cls-21" cx="224.44" cy="180.76" r="7.51"/>
        <circle class="cls-21" cx="225.47" cy="180.23" r="7.51"/>
        <circle class="cls-21" cx="226.5" cy="179.69" r="7.51"/>
        <circle class="cls-21" cx="227.52" cy="179.14" r="7.51"/>
        <circle class="cls-21" cx="228.53" cy="178.58" r="7.51"/>
        <circle class="cls-42" cx="229.54" cy="178.02" r="7.51"/>
        <circle class="cls-42" cx="230.54" cy="177.44" r="7.51"/>
        <circle class="cls-42" cx="231.53" cy="176.87" r="7.51"/>
        <circle class="cls-42" cx="232.52" cy="176.28" r="7.51"/>
        <circle class="cls-42" cx="233.5" cy="175.69" r="7.51"/>
        <circle class="cls-42" cx="234.47" cy="175.08" r="7.51"/>
        <circle class="cls-42" cx="235.44" cy="174.48" r="7.51"/>
        <circle class="cls-42" cx="236.4" cy="173.86" r="7.51"/>
        <circle class="cls-42" cx="237.35" cy="173.24" r="7.51"/>
        <circle class="cls-42" cx="238.29" cy="172.62" r="7.51"/>
        <circle class="cls-42" cx="239.22" cy="171.98" r="7.51"/>
        <circle class="cls-42" cx="240.14" cy="171.35" r="7.51"/>
        <circle class="cls-51" cx="241.06" cy="170.7" r="7.51"/>
        <circle class="cls-51" cx="241.97" cy="170.05" r="7.51"/>
        <circle class="cls-51" cx="242.87" cy="169.4" r="7.51"/>
        <circle class="cls-51" cx="243.75" cy="168.74" r="7.51"/>
        <circle class="cls-51" cx="244.63" cy="168.07" r="7.51"/>
        <circle class="cls-52" cx="245.51" cy="167.4" r="7.51"/>
        <circle class="cls-20" cx="246.37" cy="166.73" r="7.51"/>
        <circle class="cls-20" cx="247.22" cy="166.05" r="7.51"/>
        <circle class="cls-20" cx="248.06" cy="165.36" r="7.51"/>
        <circle class="cls-20" cx="248.89" cy="164.68" r="7.51"/>
        <circle class="cls-20" cx="249.71" cy="163.98" r="7.51"/>
        <circle class="cls-20" cx="250.52" cy="163.29" r="7.51"/>
        <circle class="cls-20" cx="251.32" cy="162.59" r="7.51"/>
        <circle class="cls-20" cx="252.11" cy="161.89" r="7.51"/>
        <circle class="cls-20" cx="252.89" cy="161.18" r="7.51"/>
        <circle class="cls-20" cx="253.65" cy="160.47" r="7.51"/>
        <circle class="cls-20" cx="254.41" cy="159.76" r="7.51"/>
        <circle class="cls-20" cx="255.15" cy="159.04" r="7.51"/>
        <circle class="cls-20" cx="255.88" cy="158.32" r="7.51"/>
        <circle class="cls-47" cx="256.6" cy="157.6" r="7.51"/>
        <circle class="cls-47" cx="257.31" cy="156.88" r="7.51"/>
        <circle class="cls-10" cx="258.01" cy="156.16" r="7.51"/>
        <circle class="cls-10" cx="258.69" cy="155.43" r="7.51"/>
        <circle class="cls-10" cx="259.36" cy="154.7" r="7.51"/>
        <circle class="cls-10" cx="260.02" cy="153.97" r="7.51"/>
        <circle class="cls-10" cx="260.67" cy="153.24" r="7.51"/>
        <circle class="cls-10" cx="261.3" cy="152.51" r="7.51"/>
        <circle class="cls-10" cx="261.92" cy="151.77" r="7.51"/>
        <circle class="cls-10" cx="262.53" cy="151.04" r="7.51"/>
        <circle class="cls-10" cx="263.12" cy="150.3" r="7.51"/>
        <circle class="cls-10" cx="263.7" cy="149.56" r="7.51"/>
        <circle class="cls-10" cx="264.27" cy="148.83" r="7.51"/>
        <circle class="cls-10" cx="264.82" cy="148.09" r="7.51"/>
        <circle class="cls-10" cx="265.35" cy="147.35" r="7.51"/>
        <circle class="cls-10" cx="265.88" cy="146.61" r="7.51"/>
        <circle class="cls-37" cx="266.39" cy="145.87" r="7.51"/>
        <circle class="cls-37" cx="266.88" cy="145.14" r="7.51"/>
        <circle class="cls-5" cx="267.36" cy="144.4" r="7.51"/>
        <circle class="cls-18" cx="267.82" cy="143.67" r="7.51"/>
        <circle class="cls-18" cx="268.27" cy="142.93" r="7.51"/>
        <circle class="cls-18" cx="268.71" cy="142.2" r="7.51"/>
        <circle class="cls-18" cx="269.12" cy="141.46" r="7.51"/>
        <circle class="cls-18" cx="269.53" cy="140.73" r="7.51"/>
        <circle class="cls-18" cx="269.91" cy="140" r="7.51"/>
        <circle class="cls-18" cx="270.28" cy="139.28" r="7.51"/>
        <circle class="cls-18" cx="270.64" cy="138.55" r="7.51"/>
        <circle class="cls-18" cx="270.97" cy="137.83" r="7.51"/>
        <circle class="cls-18" cx="271.3" cy="137.1" r="7.51"/>
        <circle class="cls-18" cx="271.6" cy="136.39" r="7.51"/>
        <circle class="cls-18" cx="271.89" cy="135.67" r="7.51"/>
        <circle class="cls-18" cx="272.16" cy="134.96" r="7.51"/>
        <circle class="cls-18" cx="272.41" cy="134.24" r="7.51"/>
        <circle class="cls-18" cx="272.65" cy="133.54" r="7.51"/>
        <circle class="cls-17" cx="272.87" cy="132.83" r="7.51"/>
        <circle class="cls-17" cx="273.07" cy="132.13" r="7.51"/>
        <circle class="cls-17" cx="273.25" cy="131.43" r="7.51"/>
        <circle class="cls-17" cx="273.42" cy="130.74" r="7.51"/>
        <circle class="cls-17" cx="273.56" cy="130.05" r="7.51"/>
        <circle class="cls-48" cx="273.69" cy="129.37" r="7.51"/>
        <circle class="cls-48" cx="273.8" cy="128.68" r="7.51"/>
        <circle class="cls-48" cx="273.89" cy="128.01" r="7.51"/>
        <circle class="cls-48" cx="273.96" cy="127.34" r="7.51"/>
        <circle class="cls-48" cx="274.02" cy="126.67" r="7.51"/>
        <circle class="cls-12" cx="274.05" cy="126.01" r="7.51"/>
        <circle class="cls-12" cx="274.07" cy="125.35" r="7.51"/>
        <circle class="cls-12" cx="274.06" cy="124.7" r="7.51"/>
        <circle class="cls-12" cx="274.04" cy="124.05" r="7.51"/>
        <circle class="cls-12" cx="273.99" cy="123.41" r="7.51"/>
        <circle class="cls-12" cx="273.93" cy="122.77" r="7.51"/>
        <circle class="cls-67" cx="273.84" cy="122.14" r="7.51"/>
        <circle class="cls-67" cx="273.74" cy="121.52" r="7.51"/>
        <circle class="cls-67" cx="273.58" cy="120.78" r="7.51"/>
        <circle class="cls-67" cx="273.34" cy="119.83" r="7.51"/>
        <circle class="cls-67" cx="273.05" cy="118.89" r="7.51"/>
        <circle class="cls-67" cx="272.71" cy="117.94" r="7.51"/>
        <circle class="cls-67" cx="272.32" cy="117" r="7.51"/>
        <circle class="cls-67" cx="271.89" cy="116.07" r="7.51"/>
        <circle class="cls-66" cx="271.42" cy="115.15" r="7.51"/>
        <circle class="cls-66" cx="270.9" cy="114.25" r="7.51"/>
        <circle class="cls-66" cx="270.35" cy="113.37" r="7.51"/>
        <circle class="cls-66" cx="269.76" cy="112.51" r="7.51"/>
        <circle class="cls-66" cx="269.14" cy="111.67" r="7.51"/>
        <circle class="cls-66" cx="268.48" cy="110.87" r="7.51"/>
        <circle class="cls-66" cx="267.79" cy="110.1" r="7.51"/>
        <circle class="cls-66" cx="267.07" cy="109.36" r="7.51"/>
        <circle class="cls-9" cx="266.32" cy="108.66" r="7.51"/>
        <circle class="cls-9" cx="265.55" cy="108.01" r="7.51"/>
        <circle class="cls-9" cx="264.75" cy="107.41" r="7.51"/>
        <circle class="cls-9" cx="263.93" cy="106.85" r="7.51"/>
        <circle class="cls-9" cx="263.09" cy="106.35" r="7.51"/>
        <circle class="cls-9" cx="262.24" cy="105.91" r="7.51"/>
        <circle class="cls-9" cx="261.36" cy="105.53" r="7.51"/>
        <circle class="cls-35" cx="260.47" cy="105.21" r="7.51"/>
        <circle class="cls-35" cx="259.57" cy="104.96" r="7.51"/>
        <circle class="cls-35" cx="258.66" cy="104.79" r="7.51"/>
        <circle class="cls-35" cx="257.74" cy="104.69" r="7.51"/>
        <circle class="cls-11" cx="256.84" cy="104.66" r="7.51"/>
        <circle class="cls-11" cx="255.93" cy="104.71" r="7.51"/>
        <circle class="cls-11" cx="255.02" cy="104.82" r="7.51"/>
        <circle class="cls-11" cx="254.11" cy="105.01" r="7.51"/>
        <circle class="cls-11" cx="253.2" cy="105.26" r="7.51"/>
        <circle class="cls-38" cx="252.31" cy="105.56" r="7.51"/>
        <circle class="cls-38" cx="251.42" cy="105.93" r="7.51"/>
        <circle class="cls-38" cx="250.54" cy="106.35" r="7.51"/>
        <circle class="cls-38" cx="249.67" cy="106.82" r="7.51"/>
        <circle class="cls-38" cx="248.81" cy="107.35" r="7.51"/>
        <circle class="cls-38" cx="247.97" cy="107.91" r="7.51"/>
        <circle class="cls-38" cx="247.14" cy="108.53" r="7.51"/>
        <circle class="cls-38" cx="246.34" cy="109.18" r="7.51"/>
        <circle class="cls-38" cx="245.55" cy="109.87" r="7.51"/>
        <circle class="cls-38" cx="244.79" cy="110.59" r="7.51"/>
        <circle class="cls-38" cx="244.05" cy="111.34" r="7.51"/>
        <circle class="cls-38" cx="243.34" cy="112.12" r="7.51"/>
        <circle class="cls-38" cx="242.65" cy="112.93" r="7.51"/>
        <circle class="cls-38" cx="242" cy="113.76" r="7.51"/>
        <circle class="cls-6" cx="241.38" cy="114.61" r="7.51"/>
        <circle class="cls-6" cx="240.79" cy="115.48" r="7.51"/>
        <circle class="cls-27" cx="240.23" cy="116.35" r="7.51"/>
        <circle class="cls-27" cx="239.71" cy="117.24" r="7.51"/>
        <circle class="cls-27" cx="239.23" cy="118.14" r="7.51"/>
        <circle class="cls-27" cx="238.8" cy="119.04" r="7.51"/>
        <circle class="cls-32" cx="238.4" cy="119.95" r="7.51"/>
        <circle class="cls-32" cx="238.05" cy="120.85" r="7.51"/>
        <circle class="cls-32" cx="237.78" cy="121.64" r="7.51"/>
        <circle class="cls-32" cx="237.54" cy="122.42" r="7.51"/>
        <circle class="cls-32" cx="237.34" cy="123.21" r="7.51"/>
        <circle class="cls-32" cx="237.16" cy="124.01" r="7.51"/>
        <circle class="cls-32" cx="237" cy="124.83" r="7.51"/>
        <circle class="cls-32" cx="236.87" cy="125.65" r="7.51"/>
        <circle class="cls-32" cx="236.77" cy="126.49" r="7.51"/>
        <circle class="cls-32" cx="236.7" cy="127.33" r="7.51"/>
        <circle class="cls-32" cx="236.65" cy="128.18" r="7.51"/>
        <circle class="cls-32" cx="236.63" cy="129.04" r="7.51"/>
        <circle class="cls-50" cx="236.63" cy="129.9" r="7.51"/>
        <circle class="cls-61" cx="236.66" cy="130.77" r="7.51"/>
        <circle class="cls-61" cx="236.72" cy="131.65" r="7.51"/>
        <circle class="cls-61" cx="236.79" cy="132.53" r="7.51"/>
        <circle class="cls-61" cx="236.9" cy="133.42" r="7.51"/>
        <circle class="cls-61" cx="237.03" cy="134.31" r="7.51"/>
        <circle class="cls-61" cx="237.18" cy="135.2" r="7.51"/>
        <circle class="cls-61" cx="237.35" cy="136.1" r="7.51"/>
        <circle class="cls-61" cx="237.55" cy="137" r="7.51"/>
        <circle class="cls-61" cx="237.78" cy="137.9" r="7.51"/>
        <circle class="cls-61" cx="238.02" cy="138.8" r="7.51"/>
        <circle class="cls-61" cx="238.29" cy="139.71" r="7.51"/>
        <circle class="cls-61" cx="238.59" cy="140.61" r="7.51"/>
        <circle class="cls-61" cx="238.9" cy="141.51" r="7.51"/>
        <circle class="cls-61" cx="239.24" cy="142.42" r="7.51"/>
        <circle class="cls-61" cx="239.6" cy="143.32" r="7.51"/>
        <circle class="cls-60" cx="239.98" cy="144.22" r="7.51"/>
        <circle class="cls-60" cx="240.38" cy="145.11" r="7.51"/>
        <circle class="cls-60" cx="240.8" cy="146.01" r="7.51"/>
        <circle class="cls-60" cx="241.25" cy="146.9" r="7.51"/>
        <circle class="cls-60" cx="241.72" cy="147.78" r="7.51"/>
        <circle class="cls-58" cx="242.2" cy="148.66" r="7.51"/>
        <circle class="cls-58" cx="242.71" cy="149.54" r="7.51"/>
        <circle class="cls-58" cx="243.24" cy="150.41" r="7.51"/>
        <circle class="cls-58" cx="243.78" cy="151.27" r="7.51"/>
        <circle class="cls-58" cx="244.35" cy="152.12" r="7.51"/>
        <circle class="cls-58" cx="244.94" cy="152.97" r="7.51"/>
        <circle class="cls-58" cx="245.54" cy="153.81" r="7.51"/>
        <circle class="cls-58" cx="246.17" cy="154.64" r="7.51"/>
        <circle class="cls-58" cx="246.81" cy="155.46" r="7.51"/>
        <circle class="cls-58" cx="247.47" cy="156.27" r="7.51"/>
        <circle class="cls-58" cx="248.15" cy="157.08" r="7.51"/>
        <circle class="cls-64" cx="248.85" cy="157.87" r="7.51"/>
        <circle class="cls-64" cx="249.57" cy="158.64" r="7.51"/>
        <circle class="cls-64" cx="250.3" cy="159.41" r="7.51"/>
        <circle class="cls-64" cx="251.05" cy="160.16" r="7.51"/>
        <circle class="cls-64" cx="251.82" cy="160.9" r="7.51"/>
        <circle class="cls-64" cx="252.6" cy="161.63" r="7.51"/>
        <circle class="cls-64" cx="253.4" cy="162.34" r="7.51"/>
        <circle class="cls-64" cx="254.22" cy="163.04" r="7.51"/>
        <circle class="cls-54" cx="255.06" cy="163.72" r="7.51"/>
        <circle class="cls-54" cx="255.91" cy="164.38" r="7.51"/>
        <circle class="cls-54" cx="256.77" cy="165.03" r="7.51"/>
        <circle class="cls-54" cx="257.65" cy="165.66" r="7.51"/>
        <circle class="cls-54" cx="258.55" cy="166.27" r="7.51"/>
        <circle class="cls-33" cx="259.46" cy="166.87" r="7.51"/>
        <circle class="cls-33" cx="260.39" cy="167.45" r="7.51"/>
        <circle class="cls-33" cx="261.33" cy="168" r="7.51"/>
        <circle class="cls-69" cx="262.28" cy="168.54" r="7.51"/>
        <circle class="cls-69" cx="263.25" cy="169.05" r="7.51"/>
        <circle class="cls-69" cx="264.23" cy="169.55" r="7.51"/>
        <circle class="cls-69" cx="265.23" cy="170.02" r="7.51"/>
        <circle class="cls-69" cx="266.24" cy="170.47" r="7.51"/>
        <circle class="cls-69" cx="267.26" cy="170.9" r="7.51"/>
        <circle class="cls-69" cx="268.29" cy="171.3" r="7.51"/>
        <circle class="cls-69" cx="269.34" cy="171.68" r="7.51"/>
        <circle class="cls-69" cx="270.4" cy="172.04" r="7.51"/>
        <circle class="cls-69" cx="271.48" cy="172.37" r="7.51"/>
        <circle class="cls-69" cx="272.56" cy="172.67" r="7.51"/>
        <circle class="cls-13" cx="273.66" cy="172.95" r="7.51"/>
        <circle class="cls-13" cx="274.75" cy="173.2" r="7.51"/>
        <circle class="cls-13" cx="275.68" cy="173.39" r="7.51"/>
        <circle class="cls-13" cx="276.61" cy="173.56" r="7.51"/>
        <circle class="cls-13" cx="277.55" cy="173.71" r="7.51"/>
        <circle class="cls-56" cx="278.5" cy="173.84" r="7.51"/>
        <circle class="cls-56" cx="279.46" cy="173.95" r="7.51"/>
        <circle class="cls-56" cx="280.42" cy="174.05" r="7.51"/>
        <circle class="cls-56" cx="281.39" cy="174.12" r="7.51"/>
        <circle class="cls-56" cx="282.36" cy="174.18" r="7.51"/>
        <circle class="cls-56" cx="283.34" cy="174.22" r="7.51"/>
        <circle class="cls-56" cx="284.33" cy="174.24" r="7.51"/>
        <circle class="cls-56" cx="285.31" cy="174.24" r="7.51"/>
        <circle class="cls-56" cx="286.3" cy="174.23" r="7.51"/>
        <circle class="cls-3" cx="287.29" cy="174.19" r="7.51"/>
        <circle class="cls-3" cx="288.29" cy="174.14" r="7.51"/>
        <circle class="cls-3" cx="289.28" cy="174.06" r="7.51"/>
        <circle class="cls-3" cx="290.28" cy="173.97" r="7.51"/>
        <circle class="cls-3" cx="291.27" cy="173.86" r="7.51"/>
        <circle class="cls-39" cx="292.27" cy="173.73" r="7.51"/>
        <circle class="cls-39" cx="293.26" cy="173.58" r="7.51"/>
        <circle class="cls-19" cx="294.25" cy="173.41" r="7.51"/>
        <circle class="cls-19" cx="295.24" cy="173.22" r="7.51"/>
        <circle class="cls-19" cx="296.23" cy="173.02" r="7.51"/>
        <circle class="cls-19" cx="297.21" cy="172.79" r="7.51"/>
        <circle class="cls-19" cx="298.19" cy="172.54" r="7.51"/>
        <circle class="cls-19" cx="299.17" cy="172.28" r="7.51"/>
        <circle class="cls-19" cx="300.14" cy="172" r="7.51"/>
        <circle class="cls-19" cx="301.1" cy="171.69" r="7.51"/>
        <circle class="cls-19" cx="302.06" cy="171.37" r="7.51"/>
        <circle class="cls-19" cx="303.01" cy="171.03" r="7.51"/>
        <circle class="cls-19" cx="303.96" cy="170.66" r="7.51"/>
        <circle class="cls-19" cx="304.89" cy="170.28" r="7.51"/>
        <circle class="cls-19" cx="305.82" cy="169.88" r="7.51"/>
        <circle class="cls-19" cx="306.74" cy="169.46" r="7.51"/>
        <circle class="cls-19" cx="307.65" cy="169.02" r="7.51"/>
        <circle class="cls-8" cx="308.54" cy="168.56" r="7.51"/>
        <circle class="cls-8" cx="309.43" cy="168.08" r="7.51"/>
        <circle class="cls-57" cx="310.3" cy="167.58" r="7.51"/>
        <circle class="cls-57" cx="311.17" cy="167.06" r="7.51"/>
        <circle class="cls-57" cx="312.02" cy="166.52" r="7.51"/>
        <circle class="cls-57" cx="312.85" cy="165.96" r="7.51"/>
        <circle class="cls-24" cx="313.68" cy="165.38" r="7.51"/>
        <circle class="cls-24" cx="314.49" cy="164.78" r="7.51"/>
        <circle class="cls-24" cx="315.28" cy="164.16" r="7.51"/>
        <circle class="cls-24" cx="316.06" cy="163.52" r="7.51"/>
        <circle class="cls-24" cx="316.82" cy="162.87" r="7.51"/>
        <circle class="cls-24" cx="317.56" cy="162.19" r="7.51"/>
        <circle class="cls-24" cx="318.29" cy="161.49" r="7.51"/>
        <circle class="cls-24" cx="319" cy="160.77" r="7.51"/>
        <circle class="cls-24" cx="319.69" cy="160.02" r="7.51"/>
        <circle class="cls-29" cx="320.37" cy="159.26" r="7.51"/>
        <circle class="cls-29" cx="321.02" cy="158.48" r="7.51"/>
        <circle class="cls-29" cx="321.65" cy="157.68" r="7.51"/>
        <circle class="cls-29" cx="322.26" cy="156.86" r="7.51"/>
        <circle class="cls-29" cx="322.59" cy="156.4" r="7.51"/>
        <circle class="cls-43" cx="322.79" cy="156.11" r="7.51"/>
        <circle class="cls-43" cx="323.01" cy="155.76" r="7.51"/>
        <circle class="cls-43" cx="323.27" cy="155.36" r="7.51"/>
        <circle class="cls-43" cx="323.55" cy="154.9" r="7.51"/>
        <circle class="cls-43" cx="323.84" cy="154.39" r="7.51"/>
        <circle class="cls-43" cx="324.16" cy="153.83" r="7.51"/>
        <circle class="cls-43" cx="324.49" cy="153.22" r="7.51"/>
        <circle class="cls-43" cx="324.83" cy="152.55" r="7.51"/>
        <circle class="cls-43" cx="325.18" cy="151.84" r="7.51"/>
        <circle class="cls-43" cx="325.53" cy="151.09" r="7.51"/>
        <circle class="cls-43" cx="325.88" cy="150.29" r="7.51"/>
        <circle class="cls-14" cx="326.24" cy="149.44" r="7.51"/>
        <circle class="cls-14" cx="326.58" cy="148.55" r="7.51"/>
        <circle class="cls-14" cx="326.92" cy="147.62" r="7.51"/>
        <circle class="cls-14" cx="327.24" cy="146.65" r="7.51"/>
        <circle class="cls-49" cx="327.55" cy="145.64" r="7.51"/>
        <circle class="cls-49" cx="327.83" cy="144.6" r="7.51"/>
        <circle class="cls-49" cx="328.1" cy="143.51" r="7.51"/>
        <circle class="cls-34" cx="328.34" cy="142.4" r="7.51"/>
        <circle class="cls-34" cx="328.55" cy="141.25" r="7.51"/>
        <circle class="cls-34" cx="328.73" cy="140.06" r="7.51"/>
        <circle class="cls-34" cx="328.87" cy="138.85" r="7.51"/>
        <circle class="cls-34" cx="328.98" cy="137.6" r="7.51"/>
        <circle class="cls-34" cx="329.04" cy="136.33" r="7.51"/>
        <circle class="cls-34" cx="329.06" cy="135.03" r="7.51"/>
        <circle class="cls-34" cx="329.02" cy="133.71" r="7.51"/>
        <circle class="cls-40" cx="328.94" cy="132.36" r="7.51"/>
        <circle class="cls-40" cx="328.8" cy="130.99" r="7.51"/>
        <circle class="cls-40" cx="328.6" cy="129.59" r="7.51"/>
        <circle class="cls-40" cx="328.34" cy="128.18" r="7.51"/>
        <circle class="cls-40" cx="328.01" cy="126.74" r="7.51"/>
        <circle class="cls-40" cx="327.62" cy="125.29" r="7.51"/>
        <circle class="cls-40" cx="327.17" cy="123.87" r="7.51"/>
        <circle class="cls-40" cx="326.67" cy="122.51" r="7.51"/>
        <circle class="cls-40" cx="326.13" cy="121.19" r="7.51"/>
        <circle class="cls-40" cx="325.55" cy="119.93" r="7.51"/>
        <circle class="cls-30" cx="324.94" cy="118.71" r="7.51"/>
        <circle class="cls-30" cx="324.29" cy="117.55" r="7.51"/>
        <circle class="cls-30" cx="323.62" cy="116.43" r="7.51"/>
        <circle class="cls-30" cx="322.92" cy="115.37" r="7.51"/>
        <circle class="cls-30" cx="322.21" cy="114.35" r="7.51"/>
        <circle class="cls-30" cx="321.48" cy="113.38" r="7.51"/>
        <circle class="cls-7" cx="320.74" cy="112.46" r="7.51"/>
        <circle class="cls-41" cx="319.99" cy="111.58" r="7.51"/>
        <circle class="cls-41" cx="319.23" cy="110.76" r="7.51"/>
        <circle class="cls-41" cx="318.48" cy="109.97" r="7.51"/>
        <circle class="cls-41" cx="317.73" cy="109.24" r="7.51"/>
        <circle class="cls-41" cx="316.99" cy="108.54" r="7.51"/>
        <circle class="cls-41" cx="316.26" cy="107.89" r="7.51"/>
        <circle class="cls-41" cx="315.55" cy="107.29" r="7.51"/>
        <circle class="cls-41" cx="314.85" cy="106.73" r="7.51"/>
        <circle class="cls-41" cx="314.18" cy="106.21" r="7.51"/>
        <circle class="cls-41" cx="313.54" cy="105.73" r="7.51"/>
        <circle class="cls-41" cx="312.93" cy="105.3" r="7.51"/>
        <circle class="cls-1" cx="312.36" cy="104.91" r="7.51"/>
        <circle class="cls-1" cx="311.82" cy="104.55" r="7.51"/>
        <circle class="cls-1" cx="311.33" cy="104.24" r="7.51"/>
        <circle class="cls-62" cx="310.89" cy="103.97" r="7.51"/>
        <circle class="cls-62" cx="310.5" cy="103.74" r="7.51"/>
        <circle class="cls-62" cx="310.16" cy="103.54" r="7.51"/>
        <circle class="cls-62" cx="309.88" cy="103.38" r="7.51"/>
      </g>
      <g>
        <path class="cls-68" d="M124.84,131.16c-1.42,2.55-3.59,4.61-6.52,6.18-2.93,1.57-6.57,2.35-10.92,2.35h-8.04v19.11h-12.97v-53.23h21c4.25,0,7.83.73,10.77,2.2,2.93,1.47,5.13,3.49,6.6,6.07,1.47,2.58,2.2,5.54,2.2,8.87,0,3.08-.71,5.9-2.12,8.45ZM111.95,127.64c1.21-1.16,1.82-2.81,1.82-4.93s-.61-3.76-1.82-4.93c-1.21-1.16-3.06-1.74-5.54-1.74h-7.05v13.34h7.05c2.48,0,4.32-.58,5.54-1.74Z"/>
        <path class="cls-68" d="M130.78,126.12c1.64-3.29,3.88-5.81,6.71-7.58,2.83-1.77,5.99-2.65,9.48-2.65,2.98,0,5.6.61,7.85,1.82,2.25,1.21,3.98,2.81,5.19,4.78v-5.99h12.97v42.31h-12.97v-5.99c-1.26,1.97-3.02,3.56-5.27,4.78-2.25,1.21-4.87,1.82-7.85,1.82-3.44,0-6.57-.9-9.4-2.69-2.83-1.79-5.07-4.35-6.71-7.66-1.64-3.31-2.46-7.14-2.46-11.49s.82-8.16,2.46-11.45ZM157.32,129.99c-1.8-1.87-3.98-2.81-6.56-2.81s-4.77.92-6.56,2.77c-1.8,1.85-2.69,4.39-2.69,7.62s.9,5.8,2.69,7.7c1.79,1.9,3.98,2.84,6.56,2.84s4.76-.93,6.56-2.81c1.79-1.87,2.69-4.42,2.69-7.66s-.9-5.79-2.69-7.66Z"/>
        <path class="cls-68" d="M197.75,117.7c2.22-1.21,4.83-1.82,7.81-1.82,3.49,0,6.65.89,9.48,2.65,2.83,1.77,5.07,4.3,6.71,7.58,1.64,3.29,2.46,7.1,2.46,11.45s-.82,8.18-2.46,11.49c-1.64,3.31-3.88,5.86-6.71,7.66-2.83,1.8-5.99,2.69-9.48,2.69-2.93,0-5.52-.61-7.77-1.82-2.25-1.21-4.01-2.78-5.27-4.7v26.08h-12.97v-62.48h12.97v5.99c1.26-1.97,3.01-3.56,5.23-4.78ZM208.33,129.95c-1.8-1.85-4.01-2.77-6.63-2.77s-4.77.94-6.56,2.81c-1.79,1.87-2.69,4.42-2.69,7.66s.9,5.79,2.69,7.66c1.79,1.87,3.98,2.81,6.56,2.81s4.78-.95,6.6-2.84c1.82-1.9,2.73-4.46,2.73-7.7s-.9-5.77-2.69-7.62Z"/>
      </g>
      <g>
        <path class="cls-68" d="M311.41,118.96c2.27-1.34,4.8-2.01,7.58-2.01v13.72h-3.56c-3.24,0-5.66.7-7.28,2.09-1.62,1.39-2.43,3.83-2.43,7.32v19.64h-12.97v-42.31h12.97v7.05c1.52-2.32,3.41-4.16,5.69-5.5Z"/>
        <path class="cls-68" d="M335.36,103.61v56.11h-12.97v-56.11h12.97Z"/>
        <path class="cls-68" d="M381.6,141.67h-29.34c.2,2.63,1.05,4.64,2.54,6.03,1.49,1.39,3.32,2.08,5.5,2.08,3.23,0,5.48-1.36,6.75-4.09h13.8c-.71,2.78-1.98,5.28-3.83,7.51-1.85,2.23-4.16,3.97-6.94,5.23-2.78,1.26-5.89,1.9-9.33,1.9-4.15,0-7.84-.88-11.07-2.65-3.24-1.77-5.76-4.3-7.58-7.58-1.82-3.29-2.73-7.13-2.73-11.53s.9-8.24,2.69-11.53c1.79-3.29,4.31-5.81,7.54-7.58,3.23-1.77,6.95-2.65,11.15-2.65s7.73.86,10.92,2.58c3.18,1.72,5.67,4.17,7.47,7.36,1.79,3.18,2.69,6.9,2.69,11.15,0,1.21-.08,2.48-.23,3.79ZM368.56,134.47c0-2.22-.76-3.99-2.27-5.31-1.52-1.31-3.41-1.97-5.69-1.97s-4.01.63-5.5,1.9c-1.49,1.26-2.41,3.06-2.77,5.38h16.23Z"/>
        <path class="cls-68" d="M393.19,158.43c-2.88-1.26-5.16-3-6.82-5.19-1.67-2.2-2.6-4.66-2.81-7.39h12.81c.15,1.47.83,2.65,2.05,3.56,1.21.91,2.7,1.36,4.47,1.36,1.62,0,2.87-.32,3.75-.95.88-.63,1.33-1.45,1.33-2.46,0-1.21-.63-2.11-1.9-2.69-1.26-.58-3.31-1.23-6.14-1.93-3.03-.71-5.56-1.45-7.58-2.24-2.02-.78-3.77-2.02-5.23-3.72-1.47-1.69-2.2-3.98-2.2-6.86,0-2.43.67-4.64,2.01-6.63,1.34-2,3.31-3.58,5.91-4.74,2.6-1.16,5.7-1.74,9.29-1.74,5.31,0,9.49,1.31,12.55,3.94,3.06,2.63,4.82,6.12,5.27,10.46h-11.98c-.2-1.47-.85-2.63-1.93-3.49-1.09-.86-2.52-1.29-4.28-1.29-1.52,0-2.68.29-3.49.87-.81.58-1.21,1.38-1.21,2.39,0,1.21.64,2.12,1.93,2.73,1.29.61,3.3,1.21,6.03,1.82,3.13.81,5.69,1.61,7.66,2.39,1.97.78,3.7,2.05,5.19,3.79,1.49,1.74,2.26,4.08,2.31,7.01,0,2.48-.7,4.69-2.09,6.63-1.39,1.95-3.39,3.48-5.99,4.59-2.6,1.11-5.62,1.67-9.06,1.67-3.69,0-6.98-.63-9.86-1.9Z"/>
        <path class="cls-68" d="M432.68,158.43c-2.88-1.26-5.16-3-6.82-5.19-1.67-2.2-2.6-4.66-2.81-7.39h12.81c.15,1.47.83,2.65,2.05,3.56,1.21.91,2.7,1.36,4.47,1.36,1.62,0,2.87-.32,3.75-.95.88-.63,1.33-1.45,1.33-2.46,0-1.21-.63-2.11-1.9-2.69-1.26-.58-3.31-1.23-6.14-1.93-3.03-.71-5.56-1.45-7.58-2.24-2.02-.78-3.77-2.02-5.23-3.72-1.47-1.69-2.2-3.98-2.2-6.86,0-2.43.67-4.64,2.01-6.63,1.34-2,3.31-3.58,5.91-4.74,2.6-1.16,5.7-1.74,9.29-1.74,5.31,0,9.49,1.31,12.55,3.94,3.06,2.63,4.82,6.12,5.27,10.46h-11.98c-.2-1.47-.85-2.63-1.93-3.49-1.09-.86-2.52-1.29-4.28-1.29-1.52,0-2.68.29-3.49.87-.81.58-1.21,1.38-1.21,2.39,0,1.21.64,2.12,1.93,2.73,1.29.61,3.3,1.21,6.03,1.82,3.13.81,5.69,1.61,7.66,2.39,1.97.78,3.7,2.05,5.19,3.79,1.49,1.74,2.26,4.08,2.31,7.01,0,2.48-.7,4.69-2.09,6.63-1.39,1.95-3.39,3.48-5.99,4.59-2.6,1.11-5.62,1.67-9.06,1.67-3.69,0-6.98-.63-9.86-1.9Z"/>
      </g>
      <g>
        <path class="cls-16" d="M87.27,102.61c-.47-.1-.46-1.2-.45-1.61.05-1.09,1.09-3.98,1.51-5.07,1.4-3.67,3.65-7.16,5.72-10.52l.02-1.11c-.24,0-.49.02-.72.1-1.42.48-4.14,4.87-5.04,6.28s-.8,1.57-1.41,3.01c-.69,1.62-1.61,3.23-2.07,4.97-.24.51-.79.08-.91-.34-.19-.66-.54-1.79-.65-2.38-1.66-9.39,2.9-16.72,11-21.21,3.01-1.67,8.85-3.28,12.39-3.47.51-.03,2.5-.04,2.84.03,1.34.29-1.17,2.34-1.48,2.78-5.01,7.08-2.15,17.46-8.7,23.97-.83.83-5.41,4-6.32,4.08-1.14.09-4.97.64-5.73.48Z"/>
        <path class="cls-15" d="M77.24,93.76c2.28,1.7,3.27,3.29,4.39,5.82.13.3.52.45.62.72.21.53.1,1.25.2,1.82-.36.12-.45-.11-.69-.27-.82-.56-1.68-1.61-2.64-2.21-1.03-.64-5.03-2.52-6.05-2.29-.28,1.13,1.48,1.55,2.17,2.04,2.63,1.88,5.61,3.74,6.89,6.83-3.72,2.24-8.11,1.98-11.68-.45-4.07-2.78-5.11-8.55-9.06-11.56-.32-.24-1.16-.47-1.19-.58-.3-1.23.83-.93,1.49-1.19.62-.24,1.23-.73,1.85-.89,3.64-.93,10.64-.07,13.71,2.21Z"/>
      </g>
    </g>
  </g>
</svg>