<?xml version="1.0" encoding="UTF-8"?>
<svg id="Layer_2" data-name="Layer 2" xmlns="http://www.w3.org/2000/svg" xmlns:xlink="http://www.w3.org/1999/xlink" viewBox="0 0 1333.41 1918.35">
  <defs>
    <style>
      .cls-1 {
        fill: url(#linear-gradient-2);
      }

      .cls-2 {
        fill: url(#linear-gradient);
      }

      .cls-3 {
        fill: #9c95b5;
      }

      .cls-4 {
        fill: #e3dfeb;
      }
    </style>
    <linearGradient id="linear-gradient" x1="0" y1="395.29" x2="1021.02" y2="395.29" gradientUnits="userSpaceOnUse">
      <stop offset="0" stop-color="#a99dc5"/>
      <stop offset="1" stop-color="#c1b8d4"/>
    </linearGradient>
    <linearGradient id="linear-gradient-2" x1="323.11" y1="1394.02" x2="1333.41" y2="1394.02" xlink:href="#linear-gradient"/>
  </defs>
  <g id="Layer_1-2" data-name="Layer 1">
    <g>
      <path class="cls-3" d="M318.56,789.39c65.21-54.27,130.41-108.54,195.62-162.81-47.72-42.1-95.45-84.2-143.17-126.3-8.51,39.37-16.67,79.77-24.4,121.17-10.74,57.49-20.03,113.52-28.04,167.94Z"/>
      <g>
        <path class="cls-2" d="M1018.17,4.88c-7.15-8.57-26.12-3.67-33.74-1.61C931.44,17.55,106.02,278.82,10.94,308.92c-.81.3-8.3,3.24-10.41,10.94-1.87,6.84,1.31,14.56,7.99,18.75,91.44,40.31,182.87,80.63,274.31,120.94,9.11,105.32,18.23,210.65,27.34,315.97.93,8.54,3.46,14.93,6.04,15.06,2.7.13,6.12-6.56,7.67-16.51,15.71-91.26,31.42-182.52,47.12-273.78,64.54,58.21,130.56,116.57,198.07,175.01,27.89,24.14,55.72,48.02,83.49,71.65,5.95,5.07,15.52,7.87,24.51,5.22,7.61-2.24,12.3-8.27,14.64-11.93,55.45-127.95,113.43-257.78,174.06-389.32,50.25-109.02,100.79-215.87,151.49-320.56,3.42-8.78,5.96-19.44.91-25.48Z"/>
        <path class="cls-4" d="M857.78,118.92c-166.3,124.76-332.6,249.52-498.9,374.27-4.16,23.94-9.42,54.13-13.6,78.07-8.04,46.05-16.12,92.07-24.23,138.06-7.89-132.07-13.31-228.81-13.29-237.63.02-5.08,1.75-9.36,1.75-9.36,2-4.94,5.34-8.28,7.86-10.33,178.42-112.61,356.84-225.22,535.25-337.84,26.39-16.45,39.91-24.2,40.56-23.25.63.93-11.16,10.27-35.4,28.01Z"/>
        <path class="cls-1" d="M1331.23,1448.61c-10.16-44.26-59.48-85.82-104.44-87.32-59.71-1.99-79.87,68.02-169.2,150.06-13.93,12.79-181.65,162.88-367.17,139.6-33.06-4.15-94.82-12.81-126.52-61.47-26.98-41.42-18.52-90.85-14.59-113.81,12.41-72.49,59.6-117.62,78.56-133.85l-.17-.1c68,22.67,140.69,32.82,209.81,28.14,26.31-1.78,272.48-21.37,356.29-188.24,9.3-18.52,30.49-62.1,24.93-118.73-7.4-75.28-57.11-123.2-74.78-138.41-63.01-54.26-138.69-54.57-181.18-54.73-202.28-.81-354.96,161.19-393.68,204.62-5.62-9.2-13.71-23.06-22.38-40.45-43.54-87.41-33.91-128.24-64.71-150.89-31.05-22.84-85.86-14.45-117.8,10.69-63.94,50.33-42.71,172.86-6.99,243.61,27.47,54.42,67.8,86.7,90.77,102.48l-.15-.09c-10.66,12.54-174.13,210.98-99.13,429.12,3.2,9.31,56.57,157.4,198.21,220.23,319.79,141.86,823.79-268.74,784.36-440.47ZM1001.65,1044.73c22.88,14.87,33.83,50.44,25.3,76.6-17.97,55.12-126.69,81.42-280.65,60.12,110.94-114.65,209.17-166.73,255.34-136.72Z"/>
      </g>
    </g>
  </g>
</svg>